<svg xmlns="http://www.w3.org/2000/svg" xmlns:xlink="http://www.w3.org/1999/xlink" version="1.1" width="1000" height="1000" viewBox="0 0 1000 1000" xml:space="preserve">
<desc>Created with Fabric.js 3.5.0</desc>
<defs>
</defs>
<rect x="0" y="0" width="100%" height="100%" fill="#ffffff"/>
<g transform="matrix(0.4533 0 0 0.4533 500.0153 475.8218)" id="540292">
<g style="" vector-effect="non-scaling-stroke">
		<g transform="matrix(1 0 0 1 191.63 -197.55)" id="_1421394342400">
<polygon style="stroke: none; stroke-width: 1; stroke-dasharray: none; stroke-linecap: butt; stroke-dashoffset: 0; stroke-linejoin: miter; stroke-miterlimit: 4; is-custom-font: none; font-file-url: none; fill: rgb(52,52,52); fill-rule: nonzero; opacity: 1;" points="-191.745,-441.145 -200.315,-412.035 -200.315,432.595 -191.745,441.145 200.315,209.395 "/>
</g>
		<g transform="matrix(1 0 0 1 -196.15 -197.55)" id="_1421394342400">
<polygon style="stroke: none; stroke-width: 1; stroke-dasharray: none; stroke-linecap: butt; stroke-dashoffset: 0; stroke-linejoin: miter; stroke-miterlimit: 4; is-custom-font: none; font-file-url: none; fill: rgb(140,140,140); fill-rule: nonzero; opacity: 1;" points="196.035,-441.145 -196.035,209.395 196.035,441.145 196.035,31.185 "/>
</g>
		<g transform="matrix(1 0 0 1 193.62 362.44)" id="_1421394342400">
<polygon style="stroke: none; stroke-width: 1; stroke-dasharray: none; stroke-linecap: butt; stroke-dashoffset: 0; stroke-linejoin: miter; stroke-miterlimit: 4; is-custom-font: none; font-file-url: none; fill: rgb(60,60,59); fill-rule: nonzero; opacity: 1;" points="-193.735,-44.615 -198.565,-38.725 -198.565,262.145 -193.735,276.245 198.565,-276.245 "/>
</g>
		<g transform="matrix(1 0 0 1 -196.15 362.44)" id="_1421394342400">
<polygon style="stroke: none; stroke-width: 1; stroke-dasharray: none; stroke-linecap: butt; stroke-dashoffset: 0; stroke-linejoin: miter; stroke-miterlimit: 4; is-custom-font: none; font-file-url: none; fill: rgb(140,140,140); fill-rule: nonzero; opacity: 1;" points="196.035,276.245 196.035,-44.615 -196.035,-276.245 "/>
</g>
		<g transform="matrix(1 0 0 1 195.915 38.615)" id="_1421394342400">
<polygon style="stroke: none; stroke-width: 1; stroke-dasharray: none; stroke-linecap: butt; stroke-dashoffset: 0; stroke-linejoin: miter; stroke-miterlimit: 4; is-custom-font: none; font-file-url: none; fill: rgb(20,20,20); fill-rule: nonzero; opacity: 1;" points="-196.03,204.98 196.03,-26.77 -196.03,-204.98 "/>
</g>
		<g transform="matrix(1 0 0 1 -196.15 38.615)" id="_1421394342400">
<polygon style="stroke: none; stroke-width: 1; stroke-dasharray: none; stroke-linecap: butt; stroke-dashoffset: 0; stroke-linejoin: miter; stroke-miterlimit: 4; is-custom-font: none; font-file-url: none; fill: rgb(57,57,57); fill-rule: nonzero; opacity: 1;" points="-196.035,-26.77 196.035,204.98 196.035,-204.98 "/>
</g>
</g>
</g>
</svg>