<svg width="24" height="24" viewBox="0 0 24 24" fill="none" xmlns="http://www.w3.org/2000/svg">
<path d="M6.93994 5C6.93968 5.53043 6.72871 6.03904 6.35345 6.41392C5.97819 6.78881 5.46937 6.99927 4.93894 6.999C4.40851 6.99874 3.89991 6.78777 3.52502 6.41251C3.15014 6.03725 2.93968 5.52843 2.93994 4.998C2.94021 4.46757 3.15117 3.95897 3.52644 3.58408C3.9017 3.20919 4.41051 2.99874 4.94094 2.999C5.47137 2.99927 5.97998 3.21023 6.35486 3.58549C6.72975 3.96075 6.94021 4.46957 6.93994 5ZM6.99994 8.48H2.99994V21H6.99994V8.48ZM13.3199 8.48H9.33994V21H13.2799V14.43C13.2799 10.77 18.0499 10.43 18.0499 14.43V21H21.9999V13.07C21.9999 6.9 14.9399 7.13 13.2799 10.16L13.3199 8.48Z" fill="#F8F8F8"/>
</svg>
