<svg width="56" height="94" viewBox="0 0 56 94" fill="none" xmlns="http://www.w3.org/2000/svg">
<path d="M28.232 93.664C22.856 93.664 18.376 89.184 18.376 83.68C18.376 78.304 22.856 73.824 28.232 73.824C33.736 73.824 38.216 78.304 38.216 83.68C38.216 89.184 33.736 93.664 28.232 93.664ZM28.232 74.976C23.496 74.976 19.528 78.944 19.528 83.68C19.528 88.544 23.496 92.512 28.232 92.512C33.096 92.512 37.064 88.544 37.064 83.68C37.064 78.944 33.096 74.976 28.232 74.976ZM36.552 62.944V63.456H20.168V62.944C20.168 51.808 25.928 45.664 31.048 40.288C35.016 36.064 38.472 32.352 38.472 27.104C38.472 20.576 34.248 16.608 27.208 16.608C19.528 16.608 17.096 22.496 16.328 25.952L16.2 26.592L0.456 22.624L0.584 22.112C3.656 8.8 14.152 0.863998 28.36 0.863998C43.208 0.863998 55.752 11.872 55.752 24.8C55.752 35.296 50.504 40.672 45.512 45.792C40.904 50.528 36.552 54.88 36.552 62.944ZM21.32 62.304H35.528C35.656 54.24 40.008 49.76 44.744 45.024C49.608 40.032 54.728 34.784 54.728 24.8C54.728 12.384 42.696 2.016 28.36 2.016C14.792 2.016 4.936 9.43999 1.864 21.856L15.304 25.184C16.84 19.04 21.192 15.456 27.208 15.456C34.888 15.456 39.624 19.936 39.624 27.104C39.624 32.736 35.912 36.832 31.816 41.056C26.952 46.176 21.448 52.064 21.32 62.304Z" fill="#D434FE"/>
</svg>
