<svg width="43" height="71" viewBox="0 0 43 71" fill="none" xmlns="http://www.w3.org/2000/svg">
<path d="M21.424 70.248C17.392 70.248 14.032 66.888 14.032 62.76C14.032 58.728 17.392 55.368 21.424 55.368C25.552 55.368 28.912 58.728 28.912 62.76C28.912 66.888 25.552 70.248 21.424 70.248ZM21.424 56.232C17.872 56.232 14.896 59.208 14.896 62.76C14.896 66.408 17.872 69.384 21.424 69.384C25.072 69.384 28.048 66.408 28.048 62.76C28.048 59.208 25.072 56.232 21.424 56.232ZM27.664 47.208V47.592H15.376V47.208C15.376 38.856 19.696 34.248 23.536 30.216C26.512 27.048 29.104 24.264 29.104 20.328C29.104 15.432 25.936 12.456 20.656 12.456C14.896 12.456 13.072 16.872 12.496 19.464L12.4 19.944L0.592 16.968L0.688 16.584C2.992 6.6 10.864 0.647999 21.52 0.647999C32.656 0.647999 42.064 8.904 42.064 18.6C42.064 26.472 38.128 30.504 34.384 34.344C30.928 37.896 27.664 41.16 27.664 47.208ZM16.24 46.728H26.896C26.992 40.68 30.256 37.32 33.808 33.768C37.456 30.024 41.296 26.088 41.296 18.6C41.296 9.288 32.272 1.512 21.52 1.512C11.344 1.512 3.952 7.08 1.648 16.392L11.728 18.888C12.88 14.28 16.144 11.592 20.656 11.592C26.416 11.592 29.968 14.952 29.968 20.328C29.968 24.552 27.184 27.624 24.112 30.792C20.464 34.632 16.336 39.048 16.24 46.728Z" fill="#A866FD"/>
</svg>
